<svg width="41" height="41" viewBox="0 0 41 41" fill="none" xmlns="http://www.w3.org/2000/svg">
<circle cx="20.5" cy="20.5" r="20.5" fill="white"/>
<path d="M18.8381 20.0374C17.8902 20.1072 16.7863 20.2755 15.9861 20.4683C14.8535 20.7433 13.6183 21.2644 13.0232 21.7158C12.6334 22.0113 12.2066 22.4873 12.0384 22.8115C11.8988 23.0741 11.7593 23.5297 11.7593 23.7102C11.7593 23.7513 11.39 24.613 10.9386 25.6225C10.4872 26.6361 10.0891 27.5759 10.0563 27.7195C9.90035 28.372 10.0727 29.0737 10.52 29.6031C10.6883 29.8041 16.064 34.6013 16.3185 34.7819C16.4416 34.8639 16.6796 34.868 16.7986 34.7819C16.856 34.7408 17.2213 34.0637 17.7301 33.0378L18.5714 31.3594H20.4919H22.4083L23.229 33.005C23.7748 34.1007 24.0867 34.6834 24.1646 34.749C24.3165 34.8804 24.5504 34.8804 24.7104 34.7572C25.1003 34.4495 30.3611 29.7549 30.5007 29.5784C30.9233 29.0737 31.0957 28.3597 30.948 27.7277C30.9151 27.5923 30.5253 26.6689 30.0821 25.6759C29.4789 24.3299 29.2573 23.7964 29.2203 23.583C29.1054 22.9634 28.8633 22.5284 28.3627 22.0564C27.9892 21.6994 27.6979 21.4983 27.1685 21.2357C25.9005 20.5996 24.1482 20.1852 22.08 20.0333C21.4152 19.9882 19.4988 19.9882 18.8381 20.0374ZM22.5929 20.9567C25.5599 21.2768 27.6158 22.1303 28.1903 23.2793C28.2724 23.4394 28.338 23.6076 28.338 23.6487C28.338 23.702 27.3327 24.4817 25.0018 26.2299L21.6614 28.7331H20.4919H19.3182L16.0025 26.2381C14.1599 24.851 12.6744 23.7061 12.6703 23.6692C12.6621 23.6281 12.7237 23.4558 12.8057 23.2916C13.4377 22.0072 15.904 21.0962 19.3305 20.8787C19.8845 20.8459 22.0266 20.8951 22.5929 20.9567ZM15.4977 26.9521C17.2007 28.2283 18.596 29.2871 18.6042 29.3076C18.6124 29.324 18.1241 30.3212 17.5249 31.5195C16.7575 33.0583 16.4211 33.6944 16.3841 33.6698C16.2733 33.6041 11.3161 29.1845 11.1889 29.0409C10.9468 28.7618 10.8401 28.3761 10.8975 28.0026C10.9222 27.8672 11.152 27.2968 11.4885 26.5458C12.2928 24.7402 12.342 24.6294 12.3749 24.6294C12.3913 24.6294 13.7947 25.6718 15.4977 26.9521ZM28.892 25.1506C30.1847 28.0314 30.1765 28.0108 30.0985 28.4335C30.0411 28.7372 29.9221 28.9424 29.6225 29.2296C29.3517 29.4923 24.694 33.6246 24.616 33.6698C24.5791 33.6944 24.2426 33.0583 23.4752 31.5195C22.8761 30.3212 22.3878 29.324 22.396 29.3076C22.4124 29.2625 28.5843 24.6294 28.6253 24.6294C28.6417 24.6294 28.7607 24.8633 28.892 25.1506ZM21.7517 30.0463L21.9774 30.4977H20.5001C19.6876 30.4977 19.0228 30.4894 19.0228 30.4771C19.0228 30.4443 19.3962 29.7015 19.4413 29.6441C19.4742 29.6072 19.7368 29.5948 20.5042 29.5948H21.526L21.7517 30.0463Z" fill="#4285F4"/>
<path d="M29.1203 28.093C29.1048 28.1961 29.0901 28.2959 29.0714 28.3859C29.1185 28.4459 29.1576 28.4569 29.1786 28.3808C29.1861 28.3536 29.148 28.2864 29.1398 28.2026C29.1243 28.0444 29.2045 27.6473 29.0506 27.256C29.0232 27.1864 28.9768 27.1422 28.9934 27.2043C29.0554 27.4363 29.1791 27.7021 29.1203 28.093Z" fill="#4285F4"/>
<path d="M24.6823 33.0509C24.8585 32.8444 25.1996 32.364 25.273 32.2442C25.4011 32.0348 25.5162 31.9158 25.7654 31.7392C25.9627 31.5994 26.3283 31.3943 26.7544 31.0392C27.1805 30.6842 27.6623 30.1947 27.9602 29.8814C28.3666 29.454 28.4983 29.2813 28.6097 29.1507C28.8034 28.9238 28.9233 28.7404 28.9734 28.6636C29.055 28.5382 29.0855 28.3242 29.1203 28.093C29.1791 27.7021 29.0554 27.4363 28.9934 27.2043C28.9768 27.1422 29.0232 27.1864 29.0506 27.256C29.2045 27.6473 29.1243 28.0444 29.1398 28.2026C29.148 28.2864 29.1861 28.3536 29.1786 28.3808C29.0992 28.6681 28.7618 27.7139 28.7113 27.5625C28.6735 27.4492 28.6223 27.3501 28.5954 27.2304C28.5631 27.0866 28.4758 26.9871 28.4102 26.8787C28.36 26.7956 28.2285 26.8476 28.1784 26.7938C28.0148 26.6181 28.0276 26.423 28.085 26.1917C28.1432 26.052 28.1664 25.9748 28.1818 25.9017C28.1896 25.8591 28.1972 25.8056 28.2514 25.7273" stroke="#4285F4" stroke-width="2" stroke-linecap="round"/>
<path d="M27.154 27.4654C27.234 27.4049 27.3115 27.3446 27.3816 27.2877C27.3145 26.9491 27.2419 26.7623 27.1864 26.6031C26.9951 26.0545 27.0771 25.7817 27.0658 25.7773C26.9211 25.7213 26.8848 26.1433 26.6963 26.428C26.5816 26.6013 26.4085 26.8198 26.2606 26.9914C26.1128 27.163 25.9904 27.2778 25.805 27.4019C25.3898 27.6798 25.0615 27.8129 24.9038 27.8859C24.6683 27.9949 24.505 28.1065 24.3247 28.1947C24.2405 28.2359 24.1217 28.2988 24.0148 28.3525C23.7903 28.5471 23.5792 28.7299 23.4171 28.871C22.9288 29.2962 22.9135 29.3191 22.9057 29.3424C22.866 29.4595 22.9747 29.6357 23.0904 29.9094C23.1228 29.9863 23.175 30.0445 23.2636 30.1831C23.3523 30.3217 23.4823 30.5359 23.6525 30.8527C23.8227 31.1695 24.0292 31.5825 24.1509 31.8526C24.2726 32.1227 24.3032 32.2375 24.3151 32.2698C24.3226 32.2901 24.3268 31.9257 24.3882 31.3137C24.4186 31.0111 24.4897 30.6581 24.5975 30.2629C24.5901 30.245 24.5828 30.2265 24.5757 30.2075C24.5299 30.0845 24.4918 29.941 24.4724 29.7931C24.4522 29.6393 24.4523 29.4807 24.485 29.3357C24.4979 29.2786 24.5134 29.2254 24.5309 29.1757C24.4337 29.2303 24.3484 29.2769 24.2865 29.3088C24.0733 29.4188 24.1324 29.355 24.2872 29.2324C24.3992 29.1437 24.5161 29.0546 24.6234 28.9723C24.7823 28.6938 24.9943 28.5878 25.0259 28.5932C25.097 28.6056 24.8896 28.7682 24.6234 28.9723C24.5894 29.032 24.5578 29.0996 24.5309 29.1757C24.7683 29.0424 25.0769 28.8613 25.2911 28.728C25.5929 28.5402 25.6924 28.456 25.3918 28.7989C25.3029 28.9002 25.179 29.039 25.0381 29.1931C25.0442 29.1937 25.0499 29.1964 25.0552 29.2015C25.1003 29.245 25.112 29.4645 25.1162 29.6839C25.1398 29.4831 25.1696 29.3264 25.2274 29.3693C25.2773 29.4063 25.1491 30.34 25.1265 30.1334C25.118 30.055 25.1198 29.8695 25.1162 29.6839C25.0946 29.8674 25.0782 30.0878 25.0503 30.2261C24.9917 30.5157 24.9535 30.6457 24.8726 30.6324C24.7979 30.6201 24.6877 30.4819 24.5975 30.2629C24.4897 30.6581 24.4186 31.0111 24.3882 31.3137C24.3268 31.9257 24.3226 32.2901 24.3151 32.2698C24.3032 32.2375 24.2726 32.1227 24.1509 31.8526C24.0292 31.5825 23.8227 31.1695 23.6525 30.8527C23.4823 30.5359 23.3523 30.3217 23.2636 30.1831C23.175 30.0445 23.1228 29.9863 23.0904 29.9094C22.9747 29.6357 22.866 29.4595 22.9057 29.3424C22.9135 29.3191 22.9288 29.2962 23.4171 28.871C23.5792 28.7299 23.7903 28.5471 24.0148 28.3525C23.9398 28.3902 23.8706 28.4235 23.8233 28.4417C23.7087 28.4857 23.7316 28.4398 23.9079 28.2556C24.0842 28.0713 24.413 27.7501 24.6283 27.5502C25.0461 27.1623 25.23 27.1104 25.4186 27.0297C25.5252 26.984 25.6455 26.9107 25.242 27.2767C24.9725 27.5213 24.4666 27.9609 24.0148 28.3525C24.1217 28.2988 24.2405 28.2359 24.3247 28.1947C24.505 28.1065 24.6683 27.9949 24.9038 27.8859C25.0615 27.8129 25.3898 27.6798 25.805 27.4019C25.9904 27.2778 26.1128 27.163 26.2606 26.9914C26.4085 26.8198 26.5816 26.6013 26.6963 26.428C26.8848 26.1433 26.9211 25.7213 27.0658 25.7773C27.0771 25.7817 26.9951 26.0545 27.1864 26.6031C27.2419 26.7623 27.3145 26.9491 27.3816 27.2877C27.39 27.3302 27.3984 27.3751 27.4066 27.4226C27.4502 27.6753 27.4895 27.996 27.5198 28.2749C27.6 28.1621 27.6773 28.0538 27.7442 27.9582C27.8061 27.7966 27.877 27.6441 27.932 27.5369C28.0206 27.364 28.0701 27.2829 28.0895 27.2994C28.1124 27.319 28.0748 27.4794 27.7957 27.8842C27.7794 27.9078 27.7622 27.9326 27.7442 27.9582C27.7063 28.0572 27.6718 28.1596 27.6463 28.2572C27.5794 28.514 27.5794 28.7281 27.5832 28.8614C27.587 28.9947 27.5947 29.0405 27.568 28.7544C27.5571 28.638 27.5406 28.4663 27.5198 28.2749C27.3959 28.4491 27.2651 28.634 27.1547 28.7999C27.1129 28.9377 27.0673 29.0667 27.0249 29.1718C26.9158 29.4422 26.8317 29.5416 26.8113 29.5087C26.8012 29.4924 26.8073 29.443 26.8402 29.3581C26.7839 29.4506 26.7062 29.5636 26.6175 29.6865C26.7635 29.5958 26.9139 29.4985 27.0623 29.3987C27.6285 29.0178 28.1486 28.6125 27.8531 28.9456C27.5576 29.2788 26.4792 30.3189 25.9794 30.7681C25.4796 31.2172 25.5561 31.0796 25.9253 30.5971C26.1245 30.3367 26.4033 29.983 26.6175 29.6865C26.2062 29.942 25.83 30.1452 25.6343 30.2055C25.369 30.2872 25.4532 30.096 25.7183 29.638C25.9057 29.3144 26.1821 28.8605 26.4129 28.4779C26.0694 28.5406 25.5017 28.7863 25.5098 28.7448C25.5198 28.6943 26.3585 28.2316 26.6827 28.0258C26.7058 27.9864 26.7267 27.9503 26.7457 27.9171C26.6591 27.9408 26.5253 27.9908 26.4463 28.0182C26.2829 28.075 26.3517 28.0368 26.5792 27.8798C26.666 27.8198 26.7743 27.7438 26.8889 27.6611C26.9358 27.5752 26.9556 27.5396 26.9838 27.5089C27.0278 27.4612 27.0918 27.427 27.154 27.4654Z" fill="#4285F4"/>
<path d="M29.2944 26.1676C29.2944 26.0986 29.2791 25.9595 29.3099 25.8829C29.4738 25.4756 29.1016 25.0943 29.0437 25.0017C28.9693 24.8826 28.8777 24.8313 28.7849 24.7849C28.7629 24.774 28.7386 24.7771 28.5968 25.1021C28.4549 25.4271 28.1949 26.0772 27.9998 26.4848C27.8046 26.8923 27.6823 27.0377 27.4318 27.2464C27.1814 27.4551 26.8067 27.7227 26.5792 27.8798C26.3517 28.0368 26.2829 28.075 26.4463 28.0182C26.6097 27.9615 27.0074 27.8085 26.7381 27.9897C26.4688 28.171 25.5204 28.691 25.5098 28.7448C25.4993 28.7986 26.4553 28.3703 26.6381 28.4823C26.8208 28.5944 26.2013 29.2598 25.9013 29.5949C25.6013 29.93 25.6395 29.9147 25.9728 29.6774C26.3061 29.4401 26.9332 28.9812 26.9351 29.1463C26.9369 29.3115 26.2945 30.1145 25.9253 30.5971C25.5561 31.0796 25.4796 31.2172 25.9794 30.7681C26.4792 30.3189 27.5576 29.2788 27.8531 28.9456C28.1486 28.6125 27.6285 29.0178 27.0623 29.3987C26.4961 29.7796 25.8995 30.1238 25.6343 30.2055C25.369 30.2872 25.4532 30.096 25.7183 29.638C25.9834 29.1801 26.427 28.4611 26.667 28.0525C26.907 27.6439 26.93 27.5675 26.9838 27.5089C27.0377 27.4504 27.1219 27.4122 27.1958 27.5034C27.2697 27.5946 27.3309 27.8164 27.2974 28.1448C27.2639 28.4732 27.1339 28.9015 27.0249 29.1718C26.9158 29.4422 26.8317 29.5416 26.8113 29.5087C26.7909 29.4758 26.8368 29.3075 27.0363 28.9838C27.2359 28.66 27.5877 28.1858 27.7957 27.8842C28.0748 27.4794 28.1124 27.319 28.0895 27.2994C28.0701 27.2829 28.0206 27.364 27.932 27.5369C27.8433 27.7098 27.7133 28.0004 27.6463 28.2572C27.5794 28.514 27.5794 28.7281 27.5832 28.8614C27.587 28.9947 27.5947 29.0405 27.568 28.7544C27.5413 28.4683 27.4802 27.8488 27.4066 27.4226C27.333 26.9964 27.2489 26.7823 27.1864 26.6031C26.9951 26.0545 27.0771 25.7817 27.0658 25.7773C26.9211 25.7213 26.8848 26.1433 26.6963 26.428C26.5816 26.6013 26.4085 26.8198 26.2606 26.9914C26.1128 27.163 25.9904 27.2778 25.805 27.4019C25.3898 27.6798 25.0615 27.8129 24.9038 27.8859C24.6683 27.9949 24.505 28.1065 24.3247 28.1947C24.1813 28.2649 23.9379 28.3976 23.8233 28.4417C23.7087 28.4857 23.7316 28.4398 23.9079 28.2556C24.0842 28.0713 24.413 27.7501 24.6283 27.5502C25.0461 27.1623 25.23 27.1104 25.4186 27.0297C25.5252 26.984 25.6455 26.9107 25.242 27.2767C24.8385 27.6428 23.9055 28.4458 23.4171 28.871C22.9288 29.2962 22.9135 29.3191 22.9057 29.3424C22.866 29.4595 22.9747 29.6357 23.0904 29.9094C23.1228 29.9863 23.175 30.0445 23.2636 30.1831C23.3523 30.3217 23.4823 30.5359 23.6525 30.8527C23.8227 31.1695 24.0292 31.5825 24.1509 31.8526C24.2726 32.1227 24.3032 32.2375 24.3151 32.2698C24.3226 32.2901 24.3268 31.9257 24.3882 31.3137C24.4229 30.9679 24.5108 30.5563 24.6458 30.0911C24.7808 29.626 24.972 29.1212 25.0552 29.2015C25.1384 29.2818 25.1078 29.9625 25.1265 30.1334C25.1491 30.34 25.2773 29.4063 25.2274 29.3693C25.1167 29.2871 25.1088 29.9365 25.0503 30.2261C24.9917 30.5157 24.9535 30.6457 24.8726 30.6324C24.7917 30.6191 24.6694 30.4585 24.5757 30.2075C24.4821 29.9565 24.4209 29.6199 24.485 29.3357C24.6096 28.7828 24.9832 28.5858 25.0259 28.5932C25.1257 28.6105 24.677 28.9237 24.2872 29.2324C24.1324 29.355 24.0733 29.4188 24.2865 29.3088C24.4997 29.1988 24.9892 28.9159 25.2911 28.728C25.5929 28.5402 25.6924 28.456 25.3918 28.7989C25.0912 29.1418 24.3875 29.9143 23.9906 30.2549C23.5938 30.5954 23.5249 30.4807 23.4818 30.2228C23.4387 29.9648 23.4234 29.5671 23.5188 29.5381C23.6141 29.5092 23.8206 29.861 23.9308 29.9925C24.0411 30.124 24.0487 30.0246 24.045 29.939C24.0413 29.8533 24.026 29.7845 23.9871 29.6904" stroke="#4285F4" stroke-linecap="round"/>
<path d="M14.4851 31.0427C15.0375 31.256 15.4619 31.5398 15.6055 31.6533C15.7721 31.785 16.0595 32.2961 16.4893 32.7711C16.508 32.7918 16.5269 32.8069 16.5457 32.8171C16.6314 32.5986 16.7692 32.3519 17.0282 32.2071C17.0558 32.1917 16.8011 32.9556 16.5457 32.8171C16.4673 33.0173 16.4326 33.1938 16.3885 33.2467C16.3463 33.2973 16.3086 33.3328 16.2533 33.2969C16.1366 33.221 16.0137 32.9585 15.8473 32.6056C15.8507 32.6433 15.8263 32.6686 15.7674 32.669C15.557 32.6706 15.2637 32.4736 14.9081 32.1551C14.7006 31.9692 14.4794 31.6904 14.2445 31.3879C14.0096 31.0855 13.7782 30.7566 13.5067 30.441C13.2352 30.1255 12.9307 29.8332 12.6521 29.5851C12.1406 29.1299 11.8423 28.8927 11.7565 28.7946C11.6665 28.6916 11.5791 28.5898 11.5026 28.4999C11.5004 28.5128 11.4982 28.5256 11.496 28.5383C11.5973 28.6654 11.8057 28.9419 12.1979 29.4028C12.5151 29.7756 12.9536 30.2628 13.0474 30.3809C13.1411 30.499 12.8895 30.2623 12.7255 30.0646C12.4561 29.7398 12.0949 29.3843 11.7349 28.8828C11.6449 28.7574 11.5637 28.6449 11.4942 28.5489C11.4434 28.8428 11.3916 29.0996 11.251 29.1321C11.2263 29.1378 11.1968 29.1153 11.1835 29.0699C11.1528 28.9654 11.1 28.7687 11.172 28.5713C11.2034 28.4853 11.2643 28.4365 11.3136 28.4247C11.3629 28.4129 11.4007 28.4357 11.4302 28.462C11.4313 28.4629 11.4324 28.464 11.4336 28.4651C11.2992 28.2795 11.2243 28.1761 11.2392 28.1911C11.2553 28.2072 11.3604 28.333 11.5026 28.4999C11.536 28.3053 11.571 28.0992 11.6323 27.934C11.6714 27.8286 11.6572 27.7261 11.6215 27.6307C11.5951 27.614 11.5697 27.6036 11.5454 27.6002C11.3736 27.5758 11.1874 27.7648 11.1713 27.6803C11.1654 27.6493 11.3468 27.1148 11.43 27.2809C11.4772 27.375 11.5709 27.4957 11.6215 27.6307C11.7958 27.7407 12.0152 28.1251 12.2765 28.6054C12.4665 28.9545 12.6897 29.1618 13.142 29.5106C13.473 29.7658 14.0572 30.1151 14.4983 30.4374C14.9393 30.7596 15.2316 31.0275 15.4675 31.2265C16.0673 31.7324 16.2333 31.8078 16.4116 31.8877C16.5648 31.9563 16.7379 31.931 16.8545 31.9128C16.9124 31.9037 16.959 31.858 16.9841 31.8026C17.0092 31.7472 17.0092 31.6742 16.9726 31.6122C16.8935 31.4779 16.5806 31.3416 16.2304 31.1512C16.0859 31.0726 16.0141 31.0216 15.3796 30.4971C14.7452 29.9727 13.5515 28.9739 12.8514 28.3498C11.9465 27.5432 11.7807 27.2562 11.7316 27.201C11.6121 27.0668 11.4979 26.8878 11.4116 26.7398C11.386 26.6961 11.399 26.6177 11.466 26.5557C11.6344 26.3998 11.8537 26.3947 11.9641 26.4252C12.121 26.4685 12.3203 26.8229 12.5783 27.2407C12.7509 27.5203 13.0212 27.7954 13.5416 28.2428C13.8669 28.5224 14.3665 28.8484 14.6357 29.0485C15.05 29.3563 15.2242 29.5556 15.4946 29.7953C15.9412 30.1913 16.1101 30.4414 16.2765 30.6752C16.4363 30.8997 16.6268 30.9832 16.7993 31.0757C16.9903 31.178 17.2535 31.156 17.4454 31.101C17.4873 31.089 17.5008 31.0216 17.4768 30.9539C17.4163 30.7831 17.1095 30.6278 16.6742 30.4134C16.4293 30.2927 16.1536 30.1137 15.8936 29.9223C15.6336 29.7309 15.4021 29.5239 15.1733 29.2467C14.9445 28.9695 14.7252 28.6285 14.521 28.3371C14.1476 27.8045 13.7996 27.4418 13.5294 27.2084C13.3225 27.0296 13.1345 26.9244 12.9811 26.8078C12.511 26.4502 11.9778 26.0264 11.8914 25.9031C11.869 25.8712 11.8788 25.8175 11.8971 25.7985C11.9354 25.7587 12.1479 25.8895 12.8202 26.3597C13.3464 26.7277 14.1989 27.4267 14.6931 27.8085C15.433 28.3801 15.6428 28.5591 15.9131 28.8481C16.1012 29.0491 16.319 29.2478 16.4917 29.4512C16.7988 29.8127 17.1066 29.9498 17.3037 30.0177C17.5412 30.0995 17.747 30.1473 17.8145 30.1166C17.8241 30.1122 17.833 30.1068 17.8411 30.1004C17.8597 30.0251 17.8868 29.9637 17.9169 29.911C17.8803 29.8031 17.5035 29.5338 16.6598 28.8676C16.2811 28.5686 15.8294 28.1285 15.4325 27.7277C15.2427 27.5747 15.0435 27.4192 14.7974 27.1724C14.5924 26.9668 14.3244 26.6623 13.9018 26.2842C13.547 25.9668 13.0952 25.6068 12.7676 25.3586C12.6309 25.2698 12.4783 25.1679 12.3186 25.0559C12.1819 24.96 12.2708 24.9915 12.5949 25.2295C12.6469 25.2677 12.705 25.3111 12.7676 25.3586C13.0367 25.5333 13.2445 25.6571 13.3255 25.7064C13.4667 25.7924 13.7779 26.0293 14.1321 26.3844C14.2794 26.532 14.3525 26.6295 14.8094 27.0923C14.9798 27.2649 15.1965 27.4894 15.4325 27.7277C15.4904 27.7744 15.5474 27.8208 15.6046 27.8694C16.2563 28.4239 16.5648 28.596 16.8235 28.8113C17.2125 29.1351 17.4757 29.2854 17.6421 29.3901C17.7386 29.4507 17.8208 29.5316 17.8822 29.6174C17.9266 29.6793 17.9552 29.7505 17.9722 29.8259C18.0512 30.1767 17.8774 30.6186 17.8521 30.6392C17.7528 30.7206 17.7964 30.3204 17.8331 30.1362C17.8356 30.1239 17.8382 30.112 17.8411 30.1004C17.833 30.1068 17.8241 30.1122 17.8145 30.1166C17.747 30.1473 17.5412 30.0995 17.3037 30.0177C17.1066 29.9498 16.7988 29.8127 16.4917 29.4512C16.319 29.2478 16.1012 29.0491 15.9131 28.8481C15.6428 28.5591 15.433 28.3801 14.6931 27.8085C14.1989 27.4267 13.3464 26.7277 12.8202 26.3597C12.1479 25.8895 11.9354 25.7587 11.8971 25.7985C11.8788 25.8175 11.869 25.8712 11.8914 25.9031C11.9778 26.0264 12.511 26.4502 12.9811 26.8078C13.1345 26.9244 13.3225 27.0296 13.5294 27.2084C13.7996 27.4418 14.1476 27.8045 14.521 28.3371C14.7252 28.6285 14.9445 28.9695 15.1733 29.2467C15.4021 29.5239 15.6336 29.7309 15.8936 29.9223C16.1536 30.1137 16.4293 30.2927 16.6742 30.4134C17.1095 30.6278 17.4163 30.7831 17.4768 30.9539C17.5008 31.0216 17.4873 31.089 17.4454 31.101C17.2535 31.156 16.9903 31.178 16.7993 31.0757C16.6268 30.9832 16.4363 30.8997 16.2765 30.6752C16.1101 30.4414 15.9412 30.1913 15.4946 29.7953C15.2242 29.5556 15.05 29.3563 14.6357 29.0485C14.3665 28.8484 13.8669 28.5224 13.5416 28.2428C13.0212 27.7954 12.7509 27.5203 12.5783 27.2407C12.3203 26.8229 12.121 26.4685 11.9641 26.4252C11.8537 26.3947 11.6344 26.3998 11.466 26.5557C11.399 26.6177 11.386 26.6961 11.4116 26.7398C11.4979 26.8878 11.6121 27.0668 11.7316 27.201C11.7807 27.2562 11.9465 27.5432 12.8514 28.3498C13.5515 28.9739 14.7452 29.9727 15.3796 30.4971C16.0141 31.0216 16.0859 31.0726 16.2304 31.1512C16.5806 31.3416 16.8935 31.4779 16.9726 31.6122C17.0092 31.6742 17.0092 31.7472 16.9841 31.8026C16.959 31.858 16.9124 31.9037 16.8545 31.9128C16.7379 31.931 16.5648 31.9563 16.4116 31.8877C16.2333 31.8078 16.0673 31.7324 15.4675 31.2265C15.2316 31.0275 14.9393 30.7596 14.4983 30.4374C14.0572 30.1151 13.473 29.7658 13.142 29.5106C12.6897 29.1618 12.4665 28.9545 12.2765 28.6054C12.0152 28.1251 11.7958 27.7407 11.6215 27.6307C11.6572 27.7261 11.6714 27.8286 11.6323 27.934C11.571 28.0992 11.536 28.3053 11.5026 28.4999C11.5791 28.5898 11.6665 28.6916 11.7565 28.7946C11.8423 28.8927 12.1406 29.1299 12.6521 29.5851C12.9307 29.8332 13.2352 30.1255 13.5067 30.441C13.7782 30.7566 14.0096 31.0855 14.2445 31.3879C14.4794 31.6904 14.7006 31.9692 14.9081 32.1551C15.2637 32.4736 15.557 32.6706 15.7674 32.669C15.8263 32.6686 15.8507 32.6433 15.8473 32.6056C15.8167 32.5405 15.7846 32.4724 15.7507 32.4019C15.6852 32.3028 15.5773 32.1758 15.38 31.9877C15.1047 31.7251 14.6175 31.2744 14.4115 31.0679C14.3845 31.0408 14.3623 31.0179 14.3444 30.9988C14.226 30.8721 14.2974 30.9111 14.4219 30.9978C14.4418 31.0117 14.463 31.0268 14.4851 31.0427Z" fill="#4285F4"/>
<path d="M14.3148 31.3036C14.3148 31.2305 14.3148 31.1574 14.3026 31.0893C14.2905 31.0213 14.2661 30.9604 14.4423 31.0264C15.0156 31.2413 15.4582 31.5369 15.6055 31.6533C15.7721 31.785 16.0595 32.2961 16.4893 32.7711C16.762 33.0725 17.0579 32.1905 17.0282 32.2071C16.5319 32.4845 16.4806 33.1361 16.3885 33.2467C16.3463 33.2973 16.3086 33.3328 16.2533 33.2969C16.0905 33.191 15.9155 32.7216 15.6273 32.1505C15.3819 31.6643 15.0781 31.4885 14.9007 31.354C14.7719 31.2563 14.5651 31.0977 14.4219 30.9978C14.2786 30.898 14.2056 30.8614 14.4115 31.0679C14.6175 31.2744 15.1047 31.7251 15.38 31.9877C15.7114 32.3037 15.7908 32.447 15.8401 32.576C15.8605 32.6296 15.8406 32.6685 15.7674 32.669C15.557 32.6706 15.2637 32.4736 14.9081 32.1551C14.7006 31.9692 14.4794 31.6904 14.2445 31.3879C14.0096 31.0855 13.7782 30.7566 13.5067 30.441C13.2352 30.1255 12.9307 29.8332 12.6521 29.5851C12.1406 29.1299 11.8423 28.8927 11.7565 28.7946C11.4992 28.5002 11.2639 28.2158 11.2392 28.1911C11.2152 28.1671 11.4223 28.4472 11.7349 28.8828C12.0949 29.3843 12.4561 29.7398 12.7255 30.0646C12.8895 30.2623 13.1411 30.499 13.0474 30.3809C12.9536 30.2628 12.5151 29.7756 12.1979 29.4028C11.6836 28.7984 11.4854 28.5111 11.4302 28.462C11.4007 28.4357 11.3629 28.4129 11.3136 28.4247C11.2643 28.4365 11.2034 28.4853 11.172 28.5713C11.1 28.7687 11.1528 28.9654 11.1835 29.0699C11.1968 29.1153 11.2263 29.1378 11.251 29.1321C11.4913 29.0765 11.4721 28.3657 11.6323 27.934C11.7267 27.6795 11.5105 27.4415 11.43 27.2809C11.3468 27.1148 11.1654 27.6493 11.1713 27.6803C11.1874 27.7648 11.3736 27.5758 11.5454 27.6002C11.7302 27.6264 11.9755 28.0523 12.2765 28.6054C12.4665 28.9545 12.6897 29.1618 13.142 29.5106C13.473 29.7658 14.0572 30.1151 14.4983 30.4374C14.9393 30.7596 15.2316 31.0275 15.4675 31.2265C16.0673 31.7324 16.2333 31.8078 16.4116 31.8877C16.5648 31.9563 16.7379 31.931 16.8545 31.9128C16.9124 31.9037 16.959 31.858 16.9841 31.8026C17.0092 31.7472 17.0092 31.6742 16.9726 31.6122C16.8935 31.4779 16.5806 31.3416 16.2304 31.1512C16.0859 31.0726 16.0141 31.0216 15.3796 30.4971C14.7452 29.9727 13.5515 28.9739 12.8514 28.3498C11.9465 27.5432 11.7807 27.2562 11.7316 27.201C11.6121 27.0668 11.4979 26.8878 11.4116 26.7398C11.386 26.6961 11.399 26.6177 11.466 26.5557C11.6344 26.3998 11.8537 26.3947 11.9641 26.4252C12.121 26.4685 12.3203 26.8229 12.5783 27.2407C12.7509 27.5203 13.0212 27.7954 13.5416 28.2428C13.8669 28.5224 14.3665 28.8484 14.6357 29.0485C15.05 29.3563 15.2242 29.5556 15.4946 29.7953C15.9412 30.1913 16.1101 30.4414 16.2765 30.6752C16.4363 30.8997 16.6268 30.9832 16.7993 31.0757C16.9903 31.178 17.2535 31.156 17.4454 31.101C17.4873 31.089 17.5008 31.0216 17.4768 30.9539C17.4163 30.7831 17.1095 30.6278 16.6742 30.4134C16.4293 30.2927 16.1536 30.1137 15.8936 29.9223C15.6336 29.7309 15.4021 29.5239 15.1733 29.2467C14.9445 28.9695 14.7252 28.6285 14.521 28.3371C14.1476 27.8045 13.7996 27.4418 13.5294 27.2084C13.3225 27.0296 13.1345 26.9244 12.9811 26.8078C12.511 26.4502 11.9778 26.0264 11.8914 25.9031C11.869 25.8712 11.8788 25.8175 11.8971 25.7985C11.9354 25.7587 12.1479 25.8895 12.8202 26.3597C13.3464 26.7277 14.1989 27.4267 14.6931 27.8085C15.433 28.3801 15.6428 28.5591 15.9131 28.8481C16.1012 29.0491 16.319 29.2478 16.4917 29.4512C16.7988 29.8127 17.1066 29.9498 17.3037 30.0177C17.5412 30.0995 17.747 30.1473 17.8145 30.1166C17.8782 30.0877 17.9071 30.0122 17.9195 29.9324C17.9337 29.8409 17.5661 29.5833 16.6598 28.8676C16.0559 28.3908 15.2663 27.5552 14.8094 27.0923C14.3525 26.6295 14.2794 26.532 14.1321 26.3844C13.7779 26.0293 13.4667 25.7924 13.3255 25.7064C13.2034 25.632 12.7927 25.3882 12.3186 25.0559C12.1819 24.96 12.2708 24.9915 12.5949 25.2295C12.9189 25.4676 13.4792 25.9061 13.9018 26.2842C14.3244 26.6623 14.5924 26.9668 14.7974 27.1724C15.1185 27.4944 15.3597 27.6611 15.6046 27.8694C16.2563 28.4239 16.5648 28.596 16.8235 28.8113C17.2125 29.1351 17.4757 29.2854 17.6421 29.3901C17.7386 29.4507 17.8208 29.5316 17.8822 29.6174C18.1328 29.9673 17.8828 30.6141 17.8521 30.6392C17.7528 30.7206 17.7964 30.3204 17.8331 30.1362C17.8904 29.8492 18.067 29.7542 18.1164 29.6003C18.1902 29.3708 17.7975 29.2618 17.3371 28.8387C17.0249 28.5517 16.8497 28.4624 16.7144 28.3574C16.5666 28.2775 16.2976 28.0815 15.8439 27.7142C15.5852 27.4688 15.2685 27.1034 14.9423 26.7269" stroke="#4285F4" stroke-linecap="round"/>
<path d="M11.9266 7.31607C11.8498 7.5209 11.6962 8.92912 11.5938 10.4397C11.4658 12.6161 11.2609 13.6402 10.6977 15.0741C9.16142 18.889 10.1856 22.3456 13.5397 24.7011C15.6904 26.2118 17.8924 26.775 21.0672 26.6214C23.3204 26.519 23.9349 26.391 25.3943 25.6997C30.0542 23.5233 32.0001 19.1707 30.131 15.1509C29.619 14.0755 29.3885 13.0257 29.1837 10.5422C29.0301 8.8011 28.774 7.23926 28.646 7.11124C28.4924 6.95762 27.7499 7.31607 26.6489 8.03298C23.4996 10.1325 23.0643 10.2861 20.3247 10.2861C17.6107 10.2861 17.4827 10.2349 14.3846 8.23781C12.2851 6.8296 12.1315 6.77839 11.9266 7.31607Z" fill="#4285F4"/>
</svg>
